<svg id="SvgjsSvg1001" width="288" height="288" xmlns="http://www.w3.org/2000/svg" version="1.1" xmlns:xlink="http://www.w3.org/1999/xlink" xmlns:svgjs="http://svgjs.com/svgjs"><defs id="SvgjsDefs1002"></defs><g id="SvgjsG1008" transform="matrix(1,0,0,1,0,0)"><svg xmlns="http://www.w3.org/2000/svg" width="288" height="288" viewBox="0 0 533 236"><g fill="none" fill-rule="evenodd"><path fill="#ffffff" d="M411.318,0.285 C401.238,0.285 393.066,8.457 393.066,18.537 C393.066,30.019 403.67,39.025 415.618,36.297 C422.215,34.792 427.572,29.434 429.078,22.838 C431.807,10.888 422.801,0.285 411.318,0.285" class="color032A51 svgShape"></path><polygon fill="#ffffff" points="397.822 234.559 424.813 234.559 424.813 90.604 397.822 90.604" class="color032A51 svgShape"></polygon><path fill="#ffffff" d="M461.014 71.977L461.014 143.955 488.005 143.955 488.005 71.977C488.005 47.132 508.146 26.991 532.991 26.991L532.991 0C493.239 0 461.014 32.225 461.014 71.977M72.198 28.074C82.265 28.074 91.53 31.411 99.036 36.983L118.337 17.681C105.825 7.271 89.747 1 72.198 1 32.324 1 0 33.324 0 73.198 0 113.072 32.324 145.396 72.198 145.396 89.747 145.396 105.825 139.126 118.337 128.715L99.035 109.413C91.529 114.985 82.265 118.322 72.198 118.322 47.277 118.322 27.074 98.12 27.074 73.198 27.074 48.277 47.277 28.074 72.198 28.074" transform="translate(0 90.604)" class="color032A51 svgShape"></path><path fill="#ffffff" d="M165.268 164.023L165.268 1.285 138.276 1.285 138.276 164.023C138.276 203.776 170.501 236 210.254 236L210.254 209.009C185.409 209.009 165.268 188.868 165.268 164.023M281.123 207.457C256.338 207.457 236.247 187.365 236.247 162.581 236.247 137.797 256.338 117.705 281.123 117.705 287.352 117.705 293.284 118.977 298.677 121.271 314.737 128.104 325.998 144.027 325.998 162.581 325.998 169.977 324.198 176.947 321.029 183.098 313.579 197.56 298.512 207.457 281.123 207.457zM353.101 177.492L353.101 90.604 326.108 90.604 326.108 106.397C313.785 96.517 298.145 90.604 281.123 90.604 241.371 90.604 209.145 122.829 209.145 162.581 209.145 202.333 241.371 234.559 281.123 234.559 300.997 234.559 318.989 226.504 332.015 213.481 332.822 212.673 333.605 211.84 334.375 210.994 339.245 220.234 346.06 228.288 354.282 234.605L373.64 215.247C361.282 207.229 353.101 193.32 353.101 177.492L353.101 177.492z" class="color032A51 svgShape"></path></g></svg></g></svg>